<?xml version="1.0" standalone="no"?>
<!DOCTYPE svg PUBLIC "-//W3C//DTD SVG 20010904//EN"
 "http://www.w3.org/TR/2001/REC-SVG-20010904/DTD/svg10.dtd">
<svg version="1.0" xmlns="http://www.w3.org/2000/svg"
 width="260.000000pt" height="260.000000pt" viewBox="0 0 260.000000 260.000000"
 preserveAspectRatio="xMidYMid meet">
<metadata>
Created by potrace 1.14, written by Peter Selinger 2001-2017
</metadata>
<g transform="translate(0.000000,260.000000) scale(0.100000,-0.100000)"
fill="#000000" stroke="none">
<path d="M383 2369 c-63 -18 -73 -46 -73 -193 0 -203 16 -234 133 -256 59 -11
64 -14 76 -45 11 -31 9 -38 -19 -83 -46 -75 -87 -171 -110 -258 -35 -133 -46
-123 137 -126 l157 -3 38 -107 37 -108 -194 0 -195 0 0 -28 c0 -46 39 -181 75
-259 105 -227 291 -401 527 -493 69 -27 72 -30 90 -77 10 -27 30 -60 44 -74
24 -23 31 -24 257 -31 248 -8 296 -2 321 34 9 12 29 63 46 112 30 90 31 91 91
130 136 86 260 228 334 381 44 90 85 224 85 277 l0 28 -120 0 c-66 0 -120 4
-120 8 0 4 15 53 33 107 l34 100 86 3 c83 3 87 4 87 26 0 31 -36 165 -59 218
l-19 45 69 209 c71 217 76 248 40 287 -8 11 -24 23 -34 29 -19 10 -425 38
-563 38 -72 0 -84 -3 -105 -24 -24 -23 -24 -23 -104 -9 -78 14 -299 13 -335
-1 -11 -5 -21 6 -35 36 -32 68 -52 74 -345 92 -140 9 -273 18 -295 20 -22 3
-54 0 -72 -5z m355 -116 l262 -17 33 -105 c249 -795 333 -1049 339 -1034 4 10
64 252 133 538 69 285 128 521 130 523 5 5 455 -18 516 -27 l46 -6 -148 -450
c-81 -247 -213 -651 -294 -898 l-146 -447 -221 2 -220 3 -291 827 -292 828
-80 18 -80 19 -7 44 c-3 24 -7 79 -7 122 l-1 77 33 0 c17 0 150 -7 295 -17z
m160 -1455 c51 -143 91 -263 89 -265 -2 -2 -30 11 -63 28 -176 92 -321 253
-389 434 l-25 65 148 0 147 0 93 -262z m1177 195 c-28 -74 -48 -109 -118 -205
-43 -60 -125 -143 -133 -135 -2 2 27 94 64 205 l67 202 72 0 73 0 -25 -67z"/>
</g>
</svg>
