<?xml version="1.0" standalone="no"?>
<!DOCTYPE svg PUBLIC "-//W3C//DTD SVG 20010904//EN"
 "http://www.w3.org/TR/2001/REC-SVG-20010904/DTD/svg10.dtd">
<svg version="1.0" xmlns="http://www.w3.org/2000/svg"
 width="260.000000pt" height="260.000000pt" viewBox="0 0 260.000000 260.000000"
 preserveAspectRatio="xMidYMid meet">
<metadata>
Created by potrace 1.14, written by Peter Selinger 2001-2017
</metadata>
<g transform="translate(0.000000,260.000000) scale(0.100000,-0.100000)"
fill="#000000" stroke="none">
<path d="M384 2369 c-62 -17 -69 -36 -70 -193 -1 -85 4 -155 11 -176 13 -39
47 -67 90 -74 85 -13 94 -18 105 -51 10 -31 7 -40 -39 -122 -50 -90 -98 -222
-107 -300 l-5 -42 157 -3 157 -3 39 -105 c21 -58 38 -106 38 -107 0 -2 -88 -3
-195 -3 l-195 0 0 -22 c0 -13 5 -43 11 -68 6 -25 12 -49 13 -55 17 -83 103
-256 160 -325 116 -138 251 -239 399 -301 89 -36 91 -38 110 -86 23 -59 41
-79 81 -92 31 -10 441 -21 484 -13 39 8 66 47 98 143 19 58 38 97 50 103 53
30 169 124 218 177 88 95 181 246 201 325 3 11 14 51 24 89 11 39 20 82 20 98
l1 27 -120 0 c-66 0 -120 4 -120 8 0 4 15 53 33 107 l34 100 87 3 87 3 -6 46
c-3 26 -20 91 -39 146 l-34 100 23 66 c68 193 112 348 108 379 -6 34 -52 81
-81 83 -9 0 -39 2 -67 3 -27 2 -97 6 -155 10 -58 3 -150 9 -205 13 -159 9
-202 3 -230 -33 -8 -11 -23 -11 -85 0 -66 13 -223 14 -334 4 -25 -3 -31 1 -37
25 -10 36 -27 56 -59 70 -36 15 -43 16 -160 22 -58 4 -125 8 -150 10 -25 2
-92 7 -150 10 -58 4 -118 8 -135 9 -16 2 -44 0 -61 -5z"/>
</g>
</svg>
